<?xml version="1.0" encoding="UTF-8"?>
<svg id="Layer_2" data-name="Layer 2" xmlns="http://www.w3.org/2000/svg" viewBox="0 0 560.08 241.99">
  <defs>
    <style>
      .cls-1 {
        font-family: AdobeClean-BoldCond, 'Adobe Clean';
        font-weight: 700;
      }

      .cls-1, .cls-2 {
        fill: #231f20;
        font-size: 12px;
      }

      .cls-2 {
        font-family: STLibianTC-Regular, 'Libian TC';
      }

      .cls-3 {
        letter-spacing: 0em;
      }

      .cls-4 {
        letter-spacing: 0em;
      }

      .cls-5 {
        letter-spacing: 0em;
      }

      .cls-6 {
        letter-spacing: 0em;
      }

      .cls-7 {
        fill: none;
        stroke: #000;
        stroke-miterlimit: 10;
        stroke-width: .75px;
      }

      .cls-8 {
        letter-spacing: -.06em;
      }

      .cls-9 {
        letter-spacing: -.06em;
      }

      .cls-10 {
        letter-spacing: -.02em;
      }

      .cls-11 {
        letter-spacing: -.02em;
      }

      .cls-12 {
        letter-spacing: -.02em;
      }

      .cls-13 {
        letter-spacing: -.01em;
      }

      .cls-14 {
        letter-spacing: 0em;
      }

      .cls-15 {
        letter-spacing: 0em;
      }

      .cls-16 {
        letter-spacing: 0em;
      }

      .cls-17 {
        letter-spacing: 0em;
      }

      .cls-18 {
        letter-spacing: -.01em;
      }

      .cls-19 {
        letter-spacing: -.01em;
      }

      .cls-20 {
        letter-spacing: 0em;
      }

      .cls-21 {
        letter-spacing: 0em;
      }

      .cls-22 {
        letter-spacing: 0em;
      }

      .cls-23 {
        letter-spacing: .02em;
      }

      .cls-24 {
        letter-spacing: .02em;
      }

      .cls-25 {
        letter-spacing: .02em;
      }

      .cls-26 {
        letter-spacing: .02em;
      }

      .cls-27 {
        letter-spacing: .04em;
      }

      .cls-28 {
        letter-spacing: 0em;
      }

      .cls-29 {
        letter-spacing: 0em;
      }

      .cls-30 {
        letter-spacing: 0em;
      }

      .cls-31 {
        letter-spacing: 0em;
      }

      .cls-32 {
        letter-spacing: 0em;
      }

      .cls-33 {
        letter-spacing: 0em;
      }

      .cls-34 {
        letter-spacing: .01em;
      }

      .cls-35 {
        letter-spacing: .01em;
      }

      .cls-36 {
        letter-spacing: 0em;
      }

      .cls-37 {
        letter-spacing: 0em;
      }
    </style>
  </defs>
  <g id="text-pointer">
    <text class="cls-1" transform="translate(408.4 219.75)"><tspan class="cls-12" x="0" y="0">P</tspan><tspan x="5.72" y="0">an </tspan><tspan class="cls-4" x="19.09" y="0">o</tspan><tspan x="24.8" y="0">f P</tspan><tspan class="cls-33" x="36.04" y="0">e</tspan><tspan x="41.35" y="0">ople </tspan><tspan class="cls-24" x="63.18" y="0">(</tspan><tspan class="cls-8" x="67.33" y="0">T</tspan><tspan x="72.09" y="0">a</tspan><tspan class="cls-30" x="77.33" y="0">r</tspan><tspan x="81.11" y="0">g</tspan><tspan class="cls-34" x="86.48" y="0">e</tspan><tspan x="91.88" y="0">t </tspan><tspan class="cls-19" x="97.59" y="0">A</tspan><tspan x="103.69" y="0">udienc</tspan><tspan class="cls-11" x="133.34" y="0">e</tspan><tspan x="138.43" y="0">)</tspan></text>
    <text class="cls-1" transform="translate(454.92 188.7)"><tspan class="cls-12" x="0" y="0">P</tspan><tspan x="5.72" y="0">an </tspan><tspan class="cls-4" x="19.09" y="0">o</tspan><tspan x="24.8" y="0">f </tspan><tspan class="cls-34" x="30.1" y="0">E</tspan><tspan x="35.69" y="0">a</tspan><tspan class="cls-27" x="40.92" y="0">r</tspan><tspan class="cls-30" x="45.12" y="0">t</tspan><tspan x="48.56" y="0">h</tspan><tspan class="cls-20" x="54.36" y="0">(</tspan><tspan x="58.13" y="0">D</tspan><tspan class="cls-22" x="64.94" y="0">a</tspan><tspan class="cls-29" x="70.14" y="0">t</tspan><tspan class="cls-31" x="73.59" y="0">as</tspan><tspan class="cls-34" x="83.13" y="0">e</tspan><tspan class="cls-3" x="88.53" y="0">t)</tspan></text>
    <text class="cls-1" transform="translate(475.89 152.21)"><tspan class="cls-12" x="0" y="0">P</tspan><tspan x="5.72" y="0">an </tspan><tspan class="cls-4" x="19.09" y="0">o</tspan><tspan x="24.8" y="0">f </tspan><tspan class="cls-20" x="30.1" y="0">S</tspan><tspan class="cls-16" x="35.22" y="0">k</tspan><tspan x="40.42" y="0">y </tspan><tspan class="cls-24" x="47.77" y="0">(</tspan><tspan class="cls-9" x="51.92" y="0">T</tspan><tspan class="cls-33" x="56.69" y="0">a</tspan><tspan x="61.97" y="0">s</tspan><tspan class="cls-22" x="66.18" y="0">k</tspan><tspan x="71.4" y="0">)</tspan></text>
    <text class="cls-1" transform="translate(426.57 118.86)"><tspan class="cls-36" x="0" y="0">B</tspan><tspan class="cls-3" x="6.29" y="0">a Gua </tspan><tspan class="cls-25" x="33.85" y="0">(</tspan><tspan class="cls-15" x="37.98" y="0">V</tspan><tspan class="cls-3" x="44.11" y="0">i</tspan><tspan class="cls-35" x="46.77" y="0">e</tspan><tspan x="52.19" y="0">w </tspan><tspan class="cls-4" x="62.41" y="0">A</tspan><tspan class="cls-37" x="68.69" y="0">r</tspan><tspan class="cls-17" x="72.48" y="0">r</tspan><tspan x="76.14" y="0">a</tspan><tspan class="cls-13" x="81.37" y="0">n</tspan><tspan x="87.01" y="0">gement)</tspan></text>
    <text class="cls-1" transform="translate(406.82 84.38)"><tspan class="cls-18" x="0" y="0">N</tspan><tspan x="6.94" y="0">a </tspan><tspan class="cls-15" x="14.51" y="0">J</tspan><tspan class="cls-3" x="17.77" y="0">ia </tspan><tspan class="cls-25" x="28.01" y="0">(</tspan><tspan class="cls-15" x="32.14" y="0">V</tspan><tspan class="cls-29" x="38.27" y="0">i</tspan><tspan x="41.02" y="0">sual </tspan><tspan class="cls-17" x="61.37" y="0">E</tspan><tspan x="66.78" y="0">nc</tspan><tspan class="cls-4" x="77.03" y="0">o</tspan><tspan x="82.74" y="0">di</tspan><tspan class="cls-13" x="91.13" y="0">n</tspan><tspan x="96.77" y="0">g Chann</tspan><tspan class="cls-22" x="132.75" y="0">e</tspan><tspan class="cls-14" x="137.98" y="0">l</tspan><tspan x="140.73" y="0">)</tspan></text>
    <text class="cls-1" transform="translate(393.96 48.32)"><tspan class="cls-21" x="0" y="0">F</tspan><tspan class="cls-5" x="5.18" y="0">i</tspan><tspan x="7.88" y="0">ve </tspan><tspan class="cls-16" x="20.48" y="0">E</tspan><tspan x="25.88" y="0">lemen</tspan><tspan class="cls-26" x="53.93" y="0">t</tspan><tspan x="57.53" y="0">s </tspan><tspan class="cls-10" x="64.08" y="0">(</tspan><tspan class="cls-17" x="67.65" y="0">C</tspan><tspan class="cls-6" x="73.26" y="0">olor </tspan><tspan class="cls-5" x="93.48" y="0">S</tspan><tspan class="cls-28" x="98.72" y="0">c</tspan><tspan x="103.25" y="0">heme/</tspan><tspan class="cls-36" x="132.63" y="0">s</tspan><tspan class="cls-23" x="136.95" y="0">t</tspan><tspan class="cls-37" x="140.59" y="0">y</tspan><tspan x="145.69" y="0">l</tspan><tspan class="cls-11" x="148.51" y="0">e</tspan><tspan x="153.6" y="0">)</tspan></text>
    <text class="cls-1" transform="translate(466.32 10.32)"><tspan x="0" y="0">O</tspan><tspan class="cls-34" x="7.01" y="0">u</tspan><tspan x="12.89" y="0">ter </tspan><tspan class="cls-12" x="27.58" y="0">P</tspan><tspan x="33.3" y="0">an </tspan><tspan class="cls-20" x="46.67" y="0">(</tspan><tspan class="cls-28" x="50.44" y="0">D</tspan><tspan class="cls-32" x="57.32" y="0">e</tspan><tspan class="cls-28" x="62.64" y="0">v</tspan><tspan class="cls-6" x="67.7" y="0">ic</tspan><tspan class="cls-11" x="74.82" y="0">e</tspan><tspan x="79.91" y="0">)</tspan></text>
    <polyline class="cls-7" points=".27 241.72 16.66 225.32 559.08 225.32"/>
    <polyline class="cls-7" points="49 209.88 65.4 193.48 559.08 193.48"/>
    <polyline class="cls-7" points="94.84 173.68 111.24 157.28 559.08 157.28"/>
    <polyline class="cls-7" points="139.42 141.35 155.82 124.95 559.08 124.95"/>
    <polyline class="cls-7" points="184.53 107.47 200.93 91.07 559.08 91.07"/>
    <polyline class="cls-7" points="228.06 70.89 244.46 54.49 560.08 54.49"/>
    <polyline class="cls-7" points="273.02 31.95 289.42 15.55 559.08 15.55"/>
    <text class="cls-2" transform="translate(396.28 118.86)"><tspan x="0" y="0">八卦</tspan></text>
    <text class="cls-2" transform="translate(377.87 84.38)"><tspan x="0" y="0">纳甲</tspan></text>
    <text class="cls-2" transform="translate(363.8 48.32)"><tspan x="0" y="0">五行</tspan></text>
    <text class="cls-2" transform="translate(434.56 10.32)"><tspan x="0" y="0">外盘</tspan></text>
    <text class="cls-2" transform="translate(444.47 152.21)"><tspan x="0" y="0">天盘</tspan></text>
    <text class="cls-2" transform="translate(423.04 188.46)"><tspan x="0" y="0">地盘</tspan></text>
    <text class="cls-2" transform="translate(377.68 219.75)"><tspan x="0" y="0">人盘</tspan></text>
  </g>
</svg>